<svg width="136" height="59" viewBox="0 0 136 59" fill="none" xmlns="http://www.w3.org/2000/svg">
<rect width="136" height="59" rx="10" fill="#333333"/>
<g clip-path="url(#clip0_6_206)">
<path d="M65.7314 15.2324L40.7321 40.2324C39.7558 41.2086 39.7558 42.7916 40.7323 43.7679C41.7086 44.7441 43.2914 44.7441 44.2678 43.7677L67.4994 20.5356L90.7323 43.7679C91.7086 44.7441 93.2914 44.7441 94.2678 43.7677C94.7559 43.2797 94.9999 42.6399 94.9999 42.0001C94.9999 41.3602 94.7559 40.7204 94.2676 40.2322L69.2669 15.2324C68.7981 14.7634 68.1623 14.5001 67.4993 14.5001C66.8363 14.5001 66.2003 14.7634 65.7314 15.2324Z" fill="#F2F2F2"/>
</g>
<defs>
<clipPath id="clip0_6_206">
<rect width="55" height="55" fill="white" transform="matrix(0 -1 1 0 40 57)"/>
</clipPath>
</defs>
</svg>
